# xmcd CD database file
#
# Track frame offsets:
#	150
#	11005
#	23409
#	37143
#	53971
#	67110
#	79608
#	91974
#	102441
#	117526
#	130772
#	145481
#
# Disc length: 2108 seconds
#
# Revision: 0
# Processed by: cddbd v1.5.2PL0 Copyright (c) Steve Scherf et al.
# Submitted via: CDex 1.70beta2
#
DISCID=a5083a0c
DTITLE=Montez de Durango - Los laureles
DYEAR=1900
DGENRE=Country
TTITLE0=Montez de Durango - Laureles
TTITLE1=Montez de Durango - Primos de Baltazar
TTITLE2=Montez de Durango - Llegando a Zacatecas
TTITLE3=Montez de Durango - Corrido de Macario Leyva
TTITLE4=Montez de Durango - Hierba se movia
TTITLE5=Montez de Durango - Moreño
TTITLE6=Montez de Durango - De Durango a Chicago
TTITLE7=Montez de Durango - Al despertar
TTITLE8=Montez de Durango - Rafaelita
TTITLE9=Montez de Durango - Tres ramitas
TTITLE10=Montez de Durango - Flor del Rio
TTITLE11=Montez de Durango - Enamorado
EXTD=
EXTT0=
EXTT1=
EXTT2=
EXTT3=
EXTT4=
EXTT5=
EXTT6=
EXTT7=
EXTT8=
EXTT9=
EXTT10=
EXTT11=
PLAYORDER=
